<svg width="280" height="90" viewBox="0 0 280 90" fill="none" xmlns="http://www.w3.org/2000/svg">
  <!-- 워드마크: gofunwith. (Path로 변환된 형태) -->
  <g fill="#333333">
    <path d="M0 32.5c0-10.4 7.4-18 19.5-18s19.5 7.6 19.5 18c0 10.4-7.4 18-19.5 18S0 42.9 0 32.5zm27.4-1.2c0-4.6-3.4-8.4-7.9-8.4s-7.9 3.8-7.9 8.4 3.4 8.4 7.9 8.4 7.9-3.8 7.9-8.4zM47.2 14.5h9.4l.2 13.6c.9-4 3.7-6.2 7.7-6.2 6.6 0 10.3 4.2 10.3 11.2V48H65.8V35.4c0-4.4-2.2-6.5-5.9-6.5-4.5 0-6.7 2.6-6.7 7.7V48H47.2zm30.4 0h9.4l.2 13.6c.9-4 3.7-6.2 7.7-6.2 6.6 0 10.3 4.2 10.3 11.2V48H96.8V35.4c0-4.4-2.2-6.5-5.9-6.5-4.5 0-6.7 2.6-6.7 7.7V48H77.6zm30.3 0h9.4l.2 13.6c.9-4 3.7-6.2 7.7-6.2 6.6 0 10.3 4.2 10.3 11.2V48h-11.8V35.4c0-4.4-2.2-6.5-5.9-6.5-4.5 0-6.7 2.6-6.7 7.7V48h-11.8zm30.3 0h9.4l.2 13.6c.9-4 3.7-6.2 7.7-6.2 6.6 0 10.3 4.2 10.3 11.2V48h-11.8V35.4c0-4.4-2.2-6.5-5.9-6.5-4.5 0-6.7 2.6-6.7 7.7V48h-11.8zm30.3 0h9.4l.2 13.6c.9-4 3.7-6.2 7.7-6.2 6.6 0 10.3 4.2 10.3 11.2V48h-11.8V35.4c0-4.4-2.2-6.5-5.9-6.5-4.5 0-6.7 2.6-6.7 7.7V48h-11.8zM245 40.5c0-10.4 7.4-18 19.5-18s19.5 7.6 19.5 18c0 10.4-7.4 18-19.5 18S245 50.9 245 40.5zm27.4-1.2c0-4.6-3.4-8.4-7.9-8.4s-7.9 3.8-7.9 8.4 3.4 8.4 7.9 8.4 7.9-3.8 7.9-8.4zM275 48c0 2.2-1.8 4-4 4s-4-1.8-4-4 1.8-4 4-4 4 1.8 4 4z"/>
  </g>

  <!-- 심볼: 반짝임 (위치 조정) -->
  <g fill="#FFC107">
    <rect x="153" y="2" width="4" height="12" rx="2" transform="rotate(-45 153 2)"/>
    <rect x="163" y="4" width="4" height="12" rx="2" transform="rotate(45 163 4)"/>
    <rect x="158" y="-3" width="4" height="12" rx="2" transform="rotate(90 158 -3)"/>
  </g>

  <!-- 슬로건: Explore. Create. Share. -->
  <text x="0" y="80" font-family="Baloo 2, sans-serif" font-size="16" font-weight="normal" fill="#333333">Explore. Create. Share.</text>
</svg>
