<svg
  xmlns="http://www.w3.org/2000/svg"
  viewBox="0 0 100 100"
  width="100"
  height="100"
>
  <defs>
    <linearGradient id="gofunwith-grad" x1="0%" y1="0%" x2="100%" y2="100%">
      <stop offset="0%" style="stop-color: #00bfa5; stop-opacity: 1" />
      <stop offset="100%" style="stop-color: #00796b; stop-opacity: 1" />
    </linearGradient>
  </defs>
  <path
    fill="url(#gofunwith-grad)"
    d="M50,10 C77.61,10 100,32.39 100,60 C100,87.61 77.61,110 50,110 C22.39,110 0,87.61 0,60 C0,32.39 22.39,10 50,10 Z M50,30 C66.57,30 80,43.43 80,60 C80,76.57 66.57,90 50,90 C33.43,90 20,76.57 20,60 C20,43.43 33.43,30 50,30 Z"
    transform="translate(0, -10)"
  />
  <text
    x="50"
    y="65"
    font-family="Arial, sans-serif"
    font-size="40"
    fill="#FFFFFF"
    text-anchor="middle"
    font-weight="bold"
  >
    G
  </text>
</svg>
